{
  "asset": {
    "generator": "Khronos glTF Blender I/O v1.3.48",
    "version": "2.0"
  },
  "scene": 0,
  "scenes": [
    {
      "name": "Scene",
      "nodes": [
        0,
        1,
        2
      ]
    }
  ],
  "nodes": [
    {
      "name": "Light",
      "rotation": [
        0.16907575726509094,
        0.7558803558349609,
        -0.27217137813568115,
        0.570947527885437
      ],
      "translation": [
        4.076245307922363,
        5.903861999511719,
        -1.0054539442062378
      ]
    },
    {
      "name": "Camera",
      "rotation": [
        0.483536034822464,
        0.33687159419059753,
        -0.20870360732078552,
        0.7804827094078064
      ],
      "translation": [
        7.358891487121582,
        4.958309173583984,
        6.925790786743164
      ]
    },
    {
      "mesh": 0,
      "name": "abstract",
      "rotation": [
        0.7071068286895752,
        0,
        0,
        0.7071067094802856
      ]
    }
  ],
  "materials": [
    {
      "alphaMode": "BLEND",
      "doubleSided": true,
      "emissiveFactor": [
        0,
        0,
        0
      ],
      "name": "ab:typeBlinn1SG",
      "pbrMetallicRoughness": {
        "baseColorFactor": [
          1,
          1,
          1,
          1
        ],
        "metallicFactor": 0,
        "roughnessFactor": 0.9918350577354431
      }
    },
    {
      "alphaMode": "BLEND",
      "doubleSided": true,
      "emissiveFactor": [
        0,
        0,
        0
      ],
      "name": "ab:initialShadingGroup",
      "pbrMetallicRoughness": {
        "baseColorFactor": [
          0.5,
          0.5,
          0.5,
          1
        ],
        "metallicFactor": 0,
        "roughnessFactor": 1
      }
    }
  ],
  "meshes": [
    {
      "extras": {
        "targetNames": [
          "text",
          "real"
        ]
      },
      "name": "abstract",
      "primitives": [
        {
          "attributes": {
            "POSITION": 0,
            "NORMAL": 1,
            "TEXCOORD_0": 2
          },
          "indices": 3,
          "material": 0,
          "targets": [
            {
              "POSITION": 4,
              "NORMAL": 5
            },
            {
              "POSITION": 6,
              "NORMAL": 7
            }
          ]
        },
        {
          "attributes": {
            "POSITION": 8,
            "NORMAL": 9,
            "TEXCOORD_0": 10
          },
          "indices": 11,
          "material": 1,
          "targets": [
            {
              "POSITION": 12,
              "NORMAL": 13
            },
            {
              "POSITION": 14,
              "NORMAL": 15
            }
          ]
        }
      ],
      "weights": [
        0,
        0
      ]
    }
  ],
  "accessors": [
    {
      "bufferView": 0,
      "componentType": 5126,
      "count": 826,
      "max": [
        12.215188980102539,
        14.841887474060059,
        -13.80765438079834
      ],
      "min": [
        -10.620095252990723,
        -3.845299005508423,
        -27.59500503540039
      ],
      "type": "VEC3"
    },
    {
      "bufferView": 1,
      "componentType": 5126,
      "count": 826,
      "type": "VEC3"
    },
    {
      "bufferView": 2,
      "componentType": 5126,
      "count": 826,
      "type": "VEC2"
    },
    {
      "bufferView": 3,
      "componentType": 5123,
      "count": 2040,
      "type": "SCALAR"
    },
    {
      "bufferView": 4,
      "componentType": 5126,
      "count": 826,
      "max": [
        30.57474708557129,
        5.405941486358643,
        10.085631370544434
      ],
      "min": [
        11.356977462768555,
        -5.960356712341309,
        1.540069580078125
      ],
      "type": "VEC3"
    },
    {
      "bufferView": 5,
      "componentType": 5126,
      "count": 826,
      "type": "VEC3"
    },
    {
      "bufferView": 6,
      "componentType": 5126,
      "count": 826,
      "max": [
        4.4325761795043945,
        5.778140068054199,
        13.073643684387207
      ],
      "min": [
        -9.896966934204102,
        -10.508905410766602,
        2.5915002822875977
      ],
      "type": "VEC3"
    },
    {
      "bufferView": 7,
      "componentType": 5126,
      "count": 826,
      "type": "VEC3"
    },
    {
      "bufferView": 8,
      "componentType": 5126,
      "count": 991,
      "max": [
        13.311772346496582,
        18.02972412109375,
        -5.643744945526123
      ],
      "min": [
        -13.316574096679688,
        -8.640012741088867,
        -32.402347564697266
      ],
      "type": "VEC3"
    },
    {
      "bufferView": 9,
      "componentType": 5126,
      "count": 991,
      "type": "VEC3"
    },
    {
      "bufferView": 10,
      "componentType": 5126,
      "count": 991,
      "type": "VEC2"
    },
    {
      "bufferView": 11,
      "componentType": 5123,
      "count": 4902,
      "type": "SCALAR"
    },
    {
      "bufferView": 12,
      "componentType": 5126,
      "count": 991,
      "max": [
        9.627212524414062,
        10.062484741210938,
        2.528766632080078
      ],
      "min": [
        -12.721263885498047,
        -9.038152694702148,
        -13.0092134475708
      ],
      "type": "VEC3"
    },
    {
      "bufferView": 13,
      "componentType": 5126,
      "count": 991,
      "type": "VEC3"
    },
    {
      "bufferView": 14,
      "componentType": 5126,
      "count": 991,
      "max": [
        4.698361396789551,
        3.8304195404052734,
        5.105376243591309
      ],
      "min": [
        -4.694452285766602,
        -3.4957799911499023,
        -3.3125972747802734
      ],
      "type": "VEC3"
    },
    {
      "bufferView": 15,
      "componentType": 5126,
      "count": 991,
      "type": "VEC3"
    }
  ],
  "bufferViews": [
    {
      "buffer": 0,
      "byteLength": 9912,
      "byteOffset": 0
    },
    {
      "buffer": 0,
      "byteLength": 9912,
      "byteOffset": 9912
    },
    {
      "buffer": 0,
      "byteLength": 6608,
      "byteOffset": 19824
    },
    {
      "buffer": 0,
      "byteLength": 4080,
      "byteOffset": 26432
    },
    {
      "buffer": 0,
      "byteLength": 9912,
      "byteOffset": 30512
    },
    {
      "buffer": 0,
      "byteLength": 9912,
      "byteOffset": 40424
    },
    {
      "buffer": 0,
      "byteLength": 9912,
      "byteOffset": 50336
    },
    {
      "buffer": 0,
      "byteLength": 9912,
      "byteOffset": 60248
    },
    {
      "buffer": 0,
      "byteLength": 11892,
      "byteOffset": 70160
    },
    {
      "buffer": 0,
      "byteLength": 11892,
      "byteOffset": 82052
    },
    {
      "buffer": 0,
      "byteLength": 7928,
      "byteOffset": 93944
    },
    {
      "buffer": 0,
      "byteLength": 9804,
      "byteOffset": 101872
    },
    {
      "buffer": 0,
      "byteLength": 11892,
      "byteOffset": 111676
    },
    {
      "buffer": 0,
      "byteLength": 11892,
      "byteOffset": 123568
    },
    {
      "buffer": 0,
      "byteLength": 11892,
      "byteOffset": 135460
    },
    {
      "buffer": 0,
      "byteLength": 11892,
      "byteOffset": 147352
    }
  ],
  "buffers": [
    {
      "uri": "meaning-model_data.bin",
      "byteLength": 159244
    }
  ]
}